<svg width="746" height="224" viewBox="0 0 746 224" fill="none" xmlns="http://www.w3.org/2000/svg">
<g clip-path="url(#clip0_18118_4059)">
<path d="M118.33 2.34009V49.2901H150.22V166.97H210.27V2.34009H118.33Z" fill="#CD2027"/>
<path d="M58.2803 49.29V96.58H90.1703V166.97H118.33V49.29H58.2803Z" fill="#91BA3E"/>
<path d="M118.33 49.29V166.97H150.22V49.29H118.33Z" fill="#CD2027"/>
<path d="M118.33 49.29V166.97H150.22V49.29H118.33Z" fill="#801417"/>
<path d="M0.970215 96.5801V166.97H58.2802V96.5801H0.970215Z" fill="#065FAA"/>
<path d="M58.2803 96.5801V166.97H90.1703V96.5801H58.2803Z" fill="#1D305F"/>
<path d="M453.38 37.6301C453.38 28.3834 455.097 21.5734 458.53 17.2001C461.963 12.8201 467.627 9.99005 475.52 8.71005V0.570068H398.17V8.71005C406.063 9.99005 411.727 12.8201 415.16 17.2001C418.587 21.5734 420.303 28.3834 420.31 37.6301V129.9C420.303 139.14 418.587 145.947 415.16 150.32C411.727 154.7 406.063 157.53 398.17 158.81V166.95H475.52V158.81C467.627 157.53 461.963 154.7 458.53 150.32C455.097 145.947 453.38 139.14 453.38 129.9V37.6301Z" fill="#333333"/>
<path d="M613.67 0.570068V8.71005C621.644 9.99005 627.364 12.8201 630.83 17.2001C634.297 21.5734 636.03 28.3834 636.03 37.6301L636.06 97.08L541.38 0.730072L494.86 0.570068V8.50006C498.28 9.18673 501.247 10.5134 503.76 12.4801C506.28 14.4467 510.864 18.97 517.51 26.05V129.9C517.51 139.14 515.777 145.947 512.31 150.32C508.844 154.7 503.124 157.53 495.15 158.81V166.95H563.75V158.81C555.77 157.53 550.047 154.7 546.58 150.32C543.114 145.947 541.38 139.14 541.38 129.9V53.2101L649.88 166.95H659.91V37.6301C659.91 28.3834 661.64 21.5734 665.1 17.2001C668.574 12.8201 674.297 9.99005 682.27 8.71005V0.570068H613.67Z" fill="#333333"/>
<path fill-rule="evenodd" clip-rule="evenodd" d="M394.54 125.65C394.54 139.517 389.44 150.727 379.24 159.28C369.04 167.84 355.44 166.95 338.44 166.95H238.61V158.81C246.55 157.53 252.244 154.7 255.69 150.32C259.144 145.947 260.87 139.14 260.87 129.9V37.63C260.87 28.3833 259.144 21.5733 255.69 17.2C252.244 12.82 246.55 9.99 238.61 8.71V0.570012H325.68C344.01 0.570012 358.31 -0.979996 368.61 6.25C378.904 13.4767 384.05 23.6767 384.05 36.85C384.05 57.31 371.477 71.1767 346.33 78.45V79.04C378.47 85.14 394.54 100.677 394.54 125.65ZM294.86 74.87H308.61C319.484 74.87 327.994 71.7233 334.14 65.43C340.28 59.14 343.35 51.9 343.35 40.69C343.35 17.19 330.88 8.65 305.92 8.65L294.86 8.71V74.87ZM353.85 124.62C353.85 113.02 350.424 103.727 343.57 96.74C336.71 89.76 327.19 87.91 314.99 87.91H294.86V137.43C294.86 145.297 296.75 150.877 300.53 154.17C304.31 157.47 310.644 159.117 319.53 159.11C330.21 159.11 338.6 155.793 344.7 149.16C350.8 142.52 353.85 136.33 353.85 124.62Z" fill="#333333"/>
<path d="M265.191 203.51L265.241 203.65C265.301 207.117 264.244 209.833 262.071 211.8C259.897 213.767 256.897 214.75 253.071 214.75C249.171 214.75 246.021 213.493 243.621 210.98C241.221 208.473 240.021 205.233 240.021 201.26V194.8C240.021 190.84 241.191 187.6 243.531 185.08C245.871 182.553 248.937 181.29 252.731 181.29C256.691 181.29 259.787 182.257 262.021 184.19C264.254 186.13 265.341 188.857 265.281 192.37L265.241 192.5H258.901C258.901 190.42 258.397 188.867 257.391 187.84C256.384 186.827 254.831 186.32 252.731 186.32C250.784 186.32 249.261 187.103 248.161 188.67C247.067 190.243 246.521 192.273 246.521 194.76V201.26C246.521 203.76 247.097 205.8 248.251 207.38C249.404 208.953 251.011 209.74 253.071 209.74C255.017 209.74 256.471 209.23 257.431 208.21C258.391 207.19 258.871 205.623 258.871 203.51H265.191Z" fill="#333333"/>
<path fill-rule="evenodd" clip-rule="evenodd" d="M272.07 201.97C272.07 198.37 273.074 195.42 275.08 193.12C277.094 190.82 279.88 189.67 283.44 189.67C287.014 189.67 289.81 190.817 291.83 193.11C293.857 195.397 294.87 198.35 294.87 201.97V202.44C294.87 206.073 293.864 209.033 291.85 211.32C289.83 213.607 287.04 214.75 283.48 214.75C279.907 214.75 277.114 213.607 275.1 211.32C273.08 209.033 272.07 206.073 272.07 202.44V201.97ZM278.57 202.44C278.57 204.647 278.957 206.417 279.73 207.75C280.504 209.077 281.754 209.74 283.48 209.74C285.167 209.74 286.4 209.07 287.18 207.73C287.96 206.39 288.35 204.627 288.35 202.44V201.97C288.35 199.83 287.957 198.08 287.17 196.72C286.377 195.367 285.134 194.69 283.44 194.69C281.754 194.69 280.52 195.37 279.74 196.73C278.96 198.097 278.57 199.843 278.57 201.97V202.44Z" fill="#333333"/>
<path d="M315.261 195.72L312.871 195.65C311.904 195.65 311.107 195.85 310.481 196.25C309.854 196.657 309.377 197.223 309.051 197.95V214.28H302.551V190.11H308.601L308.891 193.69C309.457 192.423 310.191 191.437 311.091 190.73C311.991 190.023 313.031 189.67 314.211 189.67C314.537 189.67 314.837 189.693 315.111 189.74C315.391 189.793 315.671 189.86 315.951 189.94L315.261 195.72Z" fill="#333333"/>
<path fill-rule="evenodd" clip-rule="evenodd" d="M344.111 202.87C344.111 206.443 343.284 209.317 341.631 211.49C339.977 213.663 337.671 214.75 334.711 214.75C333.444 214.75 332.317 214.513 331.331 214.04C330.351 213.573 329.511 212.887 328.811 211.98V223.57H322.311V190.11H328.191L328.571 192.97C329.284 191.917 330.144 191.103 331.151 190.53C332.151 189.957 333.321 189.67 334.661 189.67C337.654 189.67 339.977 190.837 341.631 193.17C343.284 195.51 344.111 198.587 344.111 202.4V202.87ZM337.591 202.4C337.591 200.12 337.211 198.273 336.451 196.86C335.691 195.447 334.531 194.74 332.971 194.74C331.984 194.74 331.144 194.94 330.451 195.34C329.757 195.74 329.211 196.313 328.811 197.06V207.64C329.211 208.327 329.757 208.85 330.451 209.21C331.144 209.563 331.997 209.74 333.011 209.74C334.591 209.74 335.747 209.123 336.481 207.89C337.221 206.657 337.591 204.983 337.591 202.87V202.4Z" fill="#333333"/>
<path fill-rule="evenodd" clip-rule="evenodd" d="M350.78 201.97C350.78 198.37 351.787 195.42 353.8 193.12C355.807 190.82 358.59 189.67 362.15 189.67C365.724 189.67 368.524 190.817 370.55 193.11C372.57 195.397 373.58 198.35 373.58 201.97V202.44C373.587 206.073 372.58 209.033 370.56 211.32C368.54 213.607 365.754 214.75 362.2 214.75C358.627 214.75 355.83 213.607 353.81 211.32C351.79 209.033 350.78 206.073 350.78 202.44V201.97ZM357.28 202.44C357.28 204.647 357.667 206.417 358.44 207.75C359.214 209.077 360.467 209.74 362.2 209.74C363.88 209.74 365.11 209.07 365.89 207.73C366.67 206.39 367.06 204.627 367.06 202.44V201.97C367.06 199.83 366.667 198.08 365.88 196.72C365.087 195.367 363.844 194.69 362.15 194.69C360.464 194.69 359.23 195.37 358.45 196.73C357.67 198.097 357.28 199.843 357.28 201.97V202.44Z" fill="#333333"/>
<path d="M393.971 195.72L391.581 195.65C390.614 195.65 389.817 195.85 389.191 196.25C388.564 196.657 388.087 197.223 387.761 197.95V214.28H381.261V190.11H387.321L387.611 193.69C388.171 192.423 388.904 191.437 389.811 190.73C390.711 190.023 391.747 189.67 392.921 189.67C393.247 189.67 393.551 189.693 393.831 189.74C394.104 189.793 394.381 189.86 394.661 189.94L393.971 195.72Z" fill="#333333"/>
<path fill-rule="evenodd" clip-rule="evenodd" d="M415.271 214.28C415.037 213.727 414.834 213.143 414.661 212.53C414.487 211.923 414.364 211.3 414.291 210.66C413.624 211.833 412.737 212.807 411.631 213.58C410.531 214.36 409.221 214.75 407.701 214.75C405.167 214.75 403.217 214.097 401.851 212.79C400.484 211.49 399.801 209.717 399.801 207.47C399.801 205.097 400.711 203.26 402.531 201.96C404.357 200.66 407.021 200.01 410.521 200.01H414.181V198.09C414.181 196.93 413.874 196.027 413.261 195.38C412.654 194.74 411.747 194.42 410.541 194.42C409.481 194.42 408.664 194.677 408.091 195.19C407.517 195.703 407.231 196.407 407.231 197.3H400.961L400.911 197.17C400.811 195.13 401.701 193.37 403.581 191.89C405.467 190.41 407.927 189.67 410.961 189.67C413.867 189.67 416.217 190.397 418.011 191.85C419.804 193.31 420.701 195.403 420.701 198.13V208.11C420.701 209.243 420.787 210.31 420.961 211.31C421.127 212.303 421.397 213.293 421.771 214.28H415.271ZM409.311 209.92C410.444 209.92 411.457 209.637 412.351 209.07C413.237 208.51 413.847 207.857 414.181 207.11V203.69H410.521C409.134 203.69 408.087 204.033 407.381 204.72C406.667 205.407 406.311 206.247 406.311 207.24C406.311 208.06 406.577 208.713 407.111 209.2C407.637 209.68 408.371 209.92 409.311 209.92Z" fill="#333333"/>
<path d="M437.071 184.19V190.11H441.161V194.69H437.071V207C437.071 207.933 437.268 208.603 437.661 209.01C438.054 209.41 438.571 209.61 439.211 209.61C439.558 209.61 439.858 209.59 440.111 209.55C440.364 209.517 440.654 209.453 440.981 209.36L441.511 214.08C440.858 214.3 440.221 214.467 439.601 214.58C438.988 214.693 438.314 214.75 437.581 214.75C435.334 214.75 433.604 214.13 432.391 212.89C431.178 211.657 430.571 209.7 430.571 207.02V194.69H427.041V190.11H430.571V184.19H437.071Z" fill="#333333"/>
<path d="M455.691 184.33H449.171V179.44H455.691V184.33ZM455.691 214.28H449.171V190.11H455.691V214.28Z" fill="#333333"/>
<path fill-rule="evenodd" clip-rule="evenodd" d="M463.7 201.97C463.7 198.37 464.707 195.42 466.72 193.12C468.727 190.82 471.51 189.67 475.07 189.67C478.644 189.67 481.444 190.817 483.47 193.11C485.49 195.397 486.5 198.35 486.5 201.97V202.44C486.5 206.073 485.494 209.033 483.48 211.32C481.46 213.607 478.67 214.75 475.11 214.75C471.537 214.75 468.744 213.607 466.73 211.32C464.71 209.033 463.7 206.073 463.7 202.44V201.97ZM470.2 202.44C470.2 204.647 470.587 206.417 471.36 207.75C472.134 209.077 473.384 209.74 475.11 209.74C476.797 209.74 478.03 209.07 478.81 207.73C479.59 206.39 479.98 204.627 479.98 202.44V201.97C479.98 199.83 479.587 198.08 478.8 196.72C478.014 195.367 476.77 194.69 475.07 194.69C473.39 194.69 472.157 195.37 471.37 196.73C470.59 198.097 470.2 199.843 470.2 201.97V202.44Z" fill="#333333"/>
<path d="M500.15 190.11L500.44 193.58C501.247 192.34 502.237 191.377 503.41 190.69C504.584 190.01 505.9 189.67 507.36 189.67C509.8 189.67 511.707 190.453 513.08 192.02C514.447 193.593 515.13 196.077 515.13 199.47V214.28H508.59V199.49C508.59 197.763 508.29 196.54 507.69 195.82C507.084 195.1 506.177 194.74 504.97 194.74C504.004 194.74 503.154 194.92 502.42 195.28C501.68 195.647 501.074 196.15 500.6 196.79V214.28H494.07V190.11H500.15Z" fill="#333333"/>
<path d="M564.121 209.83C563.114 211.157 561.604 212.307 559.591 213.28C557.584 214.26 554.994 214.75 551.821 214.75C547.888 214.75 544.671 213.513 542.171 211.04C539.671 208.567 538.421 205.357 538.421 201.41V194.62C538.421 190.693 539.634 187.49 542.061 185.01C544.488 182.53 547.608 181.29 551.421 181.29C555.394 181.29 558.438 182.233 560.551 184.12C562.664 186 563.684 188.51 563.611 191.65L563.571 191.79H557.421C557.428 190.063 556.931 188.72 555.931 187.76C554.931 186.8 553.481 186.32 551.581 186.32C549.581 186.32 547.971 187.09 546.751 188.63C545.531 190.17 544.921 192.153 544.921 194.58V201.41C544.921 203.87 545.544 205.873 546.791 207.42C548.044 208.967 549.721 209.74 551.821 209.74C553.368 209.74 554.591 209.587 555.491 209.28C556.391 208.967 557.088 208.57 557.581 208.09V201.79H551.331V197.28H564.121V209.83Z" fill="#333333"/>
<path d="M585.54 195.72L583.15 195.65C582.183 195.65 581.387 195.85 580.76 196.25C580.133 196.657 579.657 197.223 579.33 197.95V214.28H572.83V190.11H578.88L579.17 193.69C579.737 192.423 580.47 191.437 581.37 190.73C582.27 190.023 583.31 189.67 584.49 189.67C584.817 189.67 585.117 189.693 585.39 189.74C585.67 189.793 585.95 189.86 586.23 189.94L585.54 195.72Z" fill="#333333"/>
<path fill-rule="evenodd" clip-rule="evenodd" d="M591.141 201.97C591.141 198.37 592.147 195.42 594.161 193.12C596.167 190.82 598.951 189.67 602.511 189.67C606.084 189.67 608.884 190.817 610.911 193.11C612.931 195.397 613.941 198.35 613.941 201.97V202.44C613.941 206.073 612.934 209.033 610.921 211.32C608.901 213.607 606.111 214.75 602.551 214.75C598.977 214.75 596.184 213.607 594.171 211.32C592.151 209.033 591.141 206.073 591.141 202.44V201.97ZM597.641 202.44C597.641 204.647 598.027 206.417 598.801 207.75C599.574 209.077 600.824 209.74 602.551 209.74C604.237 209.74 605.471 209.07 606.251 207.73C607.031 206.39 607.421 204.627 607.421 202.44V201.97C607.421 199.83 607.027 198.08 606.241 196.72C605.454 195.367 604.211 194.69 602.511 194.69C600.831 194.69 599.597 195.37 598.811 196.73C598.031 198.097 597.641 199.843 597.641 201.97V202.44Z" fill="#333333"/>
<path d="M636.431 210.7C635.684 212 634.737 213 633.591 213.7C632.444 214.4 631.114 214.75 629.601 214.75C627.054 214.75 625.061 213.887 623.621 212.16C622.187 210.427 621.471 207.747 621.471 204.12V190.11H627.961V204.16C627.961 206.273 628.251 207.723 628.831 208.51C629.397 209.29 630.284 209.68 631.491 209.68C632.537 209.68 633.431 209.51 634.171 209.17C634.917 208.837 635.531 208.343 636.011 207.69V190.11H642.531V214.28H637.121L636.431 210.7Z" fill="#333333"/>
<path fill-rule="evenodd" clip-rule="evenodd" d="M672.901 202.87C672.894 206.443 672.067 209.317 670.421 211.49C668.767 213.663 666.457 214.75 663.491 214.75C662.231 214.75 661.107 214.513 660.121 214.04C659.141 213.573 658.301 212.887 657.601 211.98V223.57H651.101V190.11H656.971L657.351 192.97C658.064 191.917 658.924 191.103 659.931 190.53C660.937 189.957 662.111 189.67 663.451 189.67C666.444 189.67 668.767 190.837 670.421 193.17C672.067 195.51 672.894 198.587 672.901 202.4V202.87ZM666.371 202.4C666.371 200.12 665.994 198.273 665.241 196.86C664.481 195.447 663.317 194.74 661.751 194.74C660.771 194.74 659.934 194.94 659.241 195.34C658.547 195.74 658.001 196.313 657.601 197.06V207.64C658.001 208.327 658.547 208.85 659.241 209.21C659.934 209.563 660.787 209.74 661.801 209.74C663.374 209.74 664.531 209.123 665.271 207.89C666.011 206.657 666.377 204.983 666.371 202.87V202.4Z" fill="#333333"/>
<path fill-rule="evenodd" clip-rule="evenodd" d="M693.221 28.7201C693.221 21.0268 695.747 14.5468 700.801 9.28012C705.854 4.00679 711.994 1.37012 719.221 1.37012C726.427 1.37012 732.564 4.00679 737.631 9.28012C742.691 14.5468 745.221 21.0268 745.221 28.7201C745.221 36.4335 742.684 42.9401 737.611 48.2401C732.531 53.5401 726.401 56.1901 719.221 56.1901C711.994 56.1901 705.854 53.5401 700.801 48.2401C695.747 42.9401 693.221 36.4335 693.221 28.7201ZM697.691 28.7201C697.691 35.1668 699.784 40.5935 703.971 45.0001C708.157 49.4068 713.241 51.6101 719.221 51.6101C725.181 51.6101 730.254 49.4068 734.441 45.0001C738.627 40.5935 740.721 35.1668 740.721 28.7201C740.721 22.3001 738.627 16.9001 734.441 12.5201C730.254 8.13344 725.181 5.94012 719.221 5.94012C713.221 5.94012 708.131 8.13344 703.951 12.5201C699.777 16.9001 697.691 22.3001 697.691 28.7201ZM713.951 31.5001V43.8501H708.421V12.7201H718.711C722.397 12.7201 725.304 13.5501 727.431 15.2101C729.551 16.8701 730.611 19.2368 730.611 22.3101C730.611 23.7301 730.257 24.9701 729.551 26.0301C728.844 27.0901 727.807 28.0001 726.441 28.7601C727.854 29.4935 728.884 30.5235 729.531 31.8501C730.177 33.1835 730.501 34.7535 730.501 36.5601V38.6101C730.501 39.6101 730.544 40.5068 730.631 41.3001C730.717 42.0934 730.884 42.7468 731.131 43.2601V43.8501H725.451C725.231 43.3368 725.097 42.5835 725.051 41.5901C724.997 40.6035 724.971 39.5968 724.971 38.5701V36.5901C724.971 34.8568 724.564 33.5768 723.751 32.7501C722.931 31.9168 721.594 31.5001 719.741 31.5001H713.951ZM713.951 26.6001H718.891C720.624 26.6001 722.094 26.2335 723.301 25.5001C724.514 24.7668 725.121 23.7168 725.121 22.3501C725.121 20.5901 724.644 19.3568 723.691 18.6501C722.737 17.9434 721.077 17.5901 718.711 17.5901H713.951V26.6001Z" fill="#333333"/>
</g>
<defs>
<clipPath id="clip0_18118_4059">
<rect width="746" height="224" fill="white"/>
</clipPath>
</defs>
</svg>
